<?xml version="1.0" encoding="utf-8"?>
<!-- Generator: Adobe Illustrator 24.3.0, SVG Export Plug-In . SVG Version: 6.00 Build 0)  -->
<svg version="1.1" xmlns="http://www.w3.org/2000/svg" xmlns:xlink="http://www.w3.org/1999/xlink" x="0px" y="0px"
	 viewBox="0 0 412.7 70.6" style="enable-background:new 0 0 412.7 70.6;" xml:space="preserve">
<style type="text/css">
	.st0{fill:#FFFFFF;}
	.st1{fill-rule:evenodd;clip-rule:evenodd;}
	.st2{fill:#E2B04B;}
	.st3{fill-rule:evenodd;clip-rule:evenodd;fill:#FFFFFF;}
	.st4{fill:#FF6E1C;}
	.st5{filter:url(#Adobe_OpacityMaskFilter);}
	.st6{mask:url(#prefix__b_1_);fill:#02979B;}
	.st7{fill:#02979B;}
	.st8{fill:none;stroke:#A5A5A5;stroke-width:0.5;stroke-miterlimit:10;}
	.st9{fill:none;stroke:#FF5627;stroke-width:2;stroke-miterlimit:10;}
	.st10{fill:#F5F5F9;}
	.st11{clip-path:url(#SVGID_8_);}
	.st12{fill:url(#SVGID_13_);}
	.st13{fill:url(#SVGID_14_);}
	.st14{fill:url(#SVGID_15_);}
	.st15{fill:url(#SVGID_16_);}
	.st16{fill:url(#SVGID_17_);}
	.st17{fill:none;}
	.st18{filter:url(#Adobe_OpacityMaskFilter_1_);}
	.st19{opacity:0.5;mask:url(#SVGID_21_);fill:#1E1E1E;}
	.st20{fill:url(#SVGID_23_);}
	.st21{fill:#005500;}
	.st22{fill:#007100;}
	.st23{fill:#00D000;}
	.st24{filter:url(#Adobe_OpacityMaskFilter_2_);}
	.st25{opacity:0.52;mask:url(#SVGID_27_);fill:#1E1E1E;}
	.st26{fill:#232323;stroke:#E9E9E9;stroke-width:6;stroke-miterlimit:10;}
	.st27{fill:none;stroke:#E4E4E4;stroke-width:0.25;stroke-miterlimit:10;}
	.st28{fill:#B000D0;}
	.st29{fill:#10325A;}
	.st30{fill:#FF010B;}
	.st31{fill:url(#SVGID_28_);}
	.st32{fill:url(#SVGID_29_);}
	.st33{fill:url(#SVGID_30_);}
	.st34{fill:url(#SVGID_31_);}
	.st35{fill-rule:evenodd;clip-rule:evenodd;fill:#1D1D1B;}
	.st36{fill:url(#SVGID_32_);}
	.st37{fill:url(#SVGID_33_);}
	.st38{fill:#F9F9FD;}
	.st39{fill:none;stroke:#4B4B4B;stroke-width:0.5;stroke-miterlimit:10;}
	.st40{fill:none;stroke:#4B4B4B;stroke-width:2;stroke-miterlimit:10;}
	.st41{fill:#FF6E0F;}
	.st42{fill:none;stroke:#B2B2B2;stroke-width:0.5;stroke-miterlimit:10;}
	.st43{fill:#222738;}
	.st44{fill-rule:evenodd;clip-rule:evenodd;fill:#FFFFFF;stroke:#BABABA;stroke-miterlimit:10;}
	.st45{fill-rule:evenodd;clip-rule:evenodd;fill:#FF6E0F;}
	.st46{fill:none;stroke:#FFFFFF;stroke-miterlimit:10;}
	.st47{fill:#FFFFFF;stroke:#FF6E0F;stroke-miterlimit:10;}
	.st48{fill:#FFFFFF;stroke:#CCCCCC;stroke-width:0.5;stroke-miterlimit:10;}
	.st49{fill:#353535;}
	.st50{fill:#999999;}
	.st51{opacity:0.1;fill:#333333;}
	.st52{fill:#FF6300;}
	.st53{fill:url(#SVGID_42_);}
	.st54{opacity:0.7;fill:#DF3030;}
	.st55{opacity:0.7;fill:#FFC900;}
	.st56{opacity:0.7;fill:#2EA257;}
	.st57{opacity:0.7;fill:#009BDB;}
	.st58{opacity:0.5;fill:#272791;}
	.st59{fill:#DDDDDD;}
	.st60{fill:#FF8A00;}
	.st61{fill:#FC4D3E;}
	.st62{fill:#00B9FF;}
	.st63{fill:#00BD30;}
	.st64{fill:#0B1E61;}
	.st65{fill:#E6B44B;}
	.st66{fill-rule:evenodd;clip-rule:evenodd;fill:#0B1E61;}
	.st67{fill:#FB3243;}
	.st68{display:none;}
	.st69{display:inline;opacity:0.5;}
	.st70{fill:#8DEB6F;}
</style>
<g id="Desktop">
	<g id="Footer">
	</g>
	<g id="Logos">
		<g>
			<g>
				<path class="st10" d="M176.2,70.6H10c-5.5,0-10-4.5-10-10V10.1c0-5.5,4.5-10,10-10h166.3c5.5,0,10,4.5,10,10v50.6
					C186.2,66.2,181.7,70.6,176.2,70.6z"/>
				
					<image style="overflow:visible;" width="792" height="230" xlink:href="9B5F2C55.png"  transform="matrix(0.1962 0 0 0.1962 15.4031 12.8321)">
				</image>
			</g>
			<g>
				<path class="st10" d="M402.7,70.6H236.5c-5.5,0-10-4.5-10-10V10.1c0-5.5,4.5-10,10-10h166.3c5.5,0,10,4.5,10,10v50.6
					C412.7,66.2,408.2,70.6,402.7,70.6z"/>
				<g>
					<linearGradient id="SVGID_2_" gradientUnits="userSpaceOnUse" x1="319.6112" y1="3.824" x2="319.6112" y2="66.9617">
						<stop  offset="0.1" style="stop-color:#B3B3B3"/>
						<stop  offset="0.1894" style="stop-color:#999999"/>
						<stop  offset="0.3159" style="stop-color:#7A7A7A"/>
						<stop  offset="0.424" style="stop-color:#686868"/>
						<stop  offset="0.5" style="stop-color:#616161"/>
						<stop  offset="0.9" style="stop-color:#B3B3B3"/>
					</linearGradient>
					<path style="fill:url(#SVGID_2_);" d="M335.4,8.1c-4.6-2.7-10-4.2-15.8-4.2c-0.7,0-1.3,0-2,0.1c-16.5,1-29.6,14.7-29.6,31.5
						c0,16.8,13.2,30.6,29.8,31.5c0.6,0,1.2,0.1,1.8,0.1c5.8,0,11.2-1.5,15.8-4.2c9.4-5.5,15.8-15.7,15.8-27.3
						C351.2,23.7,344.8,13.5,335.4,8.1z M330.4,55.5c-3.2,1.7-6.9,2.7-10.8,2.7c-12.6,0-22.8-10.2-22.8-22.8
						c0-12.6,10.2-22.8,22.8-22.8c3.9,0,7.6,1,10.8,2.7c7.2,3.9,12,11.4,12,20.1C342.4,44.1,337.6,51.7,330.4,55.5z"/>
					<linearGradient id="SVGID_4_" gradientUnits="userSpaceOnUse" x1="319.6114" y1="4.4123" x2="319.6114" y2="67.6915">
						<stop  offset="7.605567e-02" style="stop-color:#FFFFFF"/>
						<stop  offset="0.1839" style="stop-color:#797979"/>
						<stop  offset="0.217" style="stop-color:#7D7D7D"/>
						<stop  offset="0.2484" style="stop-color:#888888"/>
						<stop  offset="0.2789" style="stop-color:#9B9B9B"/>
						<stop  offset="0.3062" style="stop-color:#B3B3B3"/>
						<stop  offset="0.4062" style="stop-color:#949494"/>
						<stop  offset="0.5105" style="stop-color:#8E8E8E"/>
						<stop  offset="0.6264" style="stop-color:#FFFFFF"/>
						<stop  offset="0.6386" style="stop-color:#E3E3E3"/>
						<stop  offset="0.6558" style="stop-color:#C2C2C2"/>
						<stop  offset="0.6743" style="stop-color:#A8A8A8"/>
						<stop  offset="0.6946" style="stop-color:#939393"/>
						<stop  offset="0.7172" style="stop-color:#848484"/>
						<stop  offset="0.7442" style="stop-color:#7C7C7C"/>
						<stop  offset="0.7873" style="stop-color:#797979"/>
						<stop  offset="0.9289" style="stop-color:#FFFFFF"/>
					</linearGradient>
					<path style="fill:url(#SVGID_4_);" d="M319.6,12.6c-12.6,0-22.8,10.2-22.8,22.8c0,12.6,10.2,22.8,22.8,22.8
						c12.6,0,22.8-10.2,22.8-22.8C342.4,22.8,332.2,12.6,319.6,12.6z M319.6,55.6c-11.1,0-20.2-9-20.2-20.2c0-11.2,9-20.2,20.2-20.2
						c11.2,0,20.2,9,20.2,20.2C339.8,46.5,330.8,55.6,319.6,55.6z"/>
					<g>
						<g>
							<g>
								<g>
									<g>
										<linearGradient id="SVGID_6_" gradientUnits="userSpaceOnUse" x1="319.6114" y1="10.6291" x2="319.6114" y2="55.5061">
											<stop  offset="0" style="stop-color:#FFFFFF"/>
											<stop  offset="1" style="stop-color:#FFFFFF;stop-opacity:0"/>
										</linearGradient>
										<path style="fill:url(#SVGID_6_);" d="M319.6,58.4c-12.7,0-23-10.3-23-23c0-12.7,10.3-23,23-23c12.7,0,23,10.3,23,23
											C342.6,48.1,332.3,58.4,319.6,58.4z M319.6,12.9c-12.4,0-22.5,10.1-22.5,22.5c0,12.4,10.1,22.5,22.5,22.5
											c12.4,0,22.5-10.1,22.5-22.5C342.1,23,332,12.9,319.6,12.9z"/>
									</g>
								</g>
							</g>
						</g>
					</g>
					<radialGradient id="SVGID_8_" cx="319.6107" cy="35.3931" r="20.1941" gradientUnits="userSpaceOnUse">
						<stop  offset="0" style="stop-color:#005BA3"/>
						<stop  offset="0.1434" style="stop-color:#00569C"/>
						<stop  offset="0.3468" style="stop-color:#00498A"/>
						<stop  offset="0.5862" style="stop-color:#00336B"/>
						<stop  offset="0.8508" style="stop-color:#001441"/>
						<stop  offset="1" style="stop-color:#000126"/>
					</radialGradient>
					<path style="fill:url(#SVGID_8_);" d="M319.6,55.6c-11.1,0-20.2-9-20.2-20.2c0-11.2,9-20.2,20.2-20.2c11.2,0,20.2,9,20.2,20.2
						C339.8,46.5,330.8,55.6,319.6,55.6z"/>
					<g>
						<linearGradient id="SVGID_10_" gradientUnits="userSpaceOnUse" x1="319.6106" y1="51.3024" x2="319.6106" y2="22.5376">
							<stop  offset="0" style="stop-color:#393939"/>
							<stop  offset="0.2829" style="stop-color:#A8A8A8"/>
							<stop  offset="0.6585" style="stop-color:#585658"/>
							<stop  offset="0.8244" style="stop-color:#4F4F4F"/>
							<stop  offset="1" style="stop-color:#B9B9B9"/>
						</linearGradient>
						<path style="fill:url(#SVGID_10_);" d="M319.6,23.3 M319.6,22.5L319.6,22.5L319.6,22.5c-8.6,0-12.3,3.5-12.4,3.6l-0.2,0.2
							l0,0.3l0,6.2c0,3.4,0.7,5.9,0.8,6c2.1,7.3,9.4,11.2,11.6,12.2l0.3,0.2l0.3-0.2c2.2-1,9.5-4.9,11.6-12.2c0-0.1,0.8-2.7,0.8-6
							l0-6.2l0-0.3l-0.2-0.2C331.9,26,328.2,22.5,319.6,22.5L319.6,22.5z"/>
					</g>
					<g>
						<path class="st0" d="M331.5,32.9c0,3.3-0.7,5.8-0.7,5.8c-2,7-9,10.7-11.2,11.7c-2.2-1-9.2-4.8-11.2-11.7c0,0-0.7-2.5-0.7-5.8
							l0-6.2c0,0,3.5-3.4,11.9-3.4c8.4,0,11.9,3.4,11.9,3.4L331.5,32.9z"/>
					</g>
					<g>
						<path id="SVGID_x5F_12_x5F_" class="st17" d="M305.6,56.4c-6.5-4.5-10.8-12-10.8-20.5c0-13.7,11.1-24.9,24.9-24.9
							c13.7,0,24.9,11.1,24.9,24.9c0,8.5-4.3,16-10.8,20.5"/>
						<text>						<textPath  xlink:href="#SVGID_x5F_12_x5F_" startOffset="21.2085%">
<tspan  style="fill:#0C0C0C; font-family:'Roboto-Bold'; font-size:7.4329px; letter-spacing:75;">CONFIANZA</tspan><tspan  style="fill:#2E2E2E; font-family:'Roboto-Bold'; font-size:7.4329px; letter-spacing:75;">       </tspan>						</textPath>
</text>
						<g>
							
								<image style="overflow:visible;" width="66" height="61" xlink:href="9B5F2C57.png"  transform="matrix(1 0 0 1 289.8577 0)">
							</image>
							<path id="SVGID_x5F_13_x5F_" class="st17" d="M305.6,56.4c-6.5-4.5-10.8-12-10.8-20.5c0-13.7,11.1-24.9,24.9-24.9
								c13.7,0,24.9,11.1,24.9,24.9c0,8.5-4.3,16-10.8,20.5"/>
							<text>							<textPath  xlink:href="#SVGID_x5F_13_x5F_" startOffset="21.2085%">
<tspan  style="fill:#F5F5F6; font-family:'Roboto-Bold'; font-size:7.4329px; letter-spacing:75;">CONFIANZA       </tspan>							</textPath>
</text>
						</g>
						<g>
							<path id="SVGID_x5F_14_x5F_" class="st17" d="M305.6,56.4c-6.5-4.5-10.8-12-10.8-20.5c0-13.7,11.1-24.9,24.9-24.9
								c13.7,0,24.9,11.1,24.9,24.9c0,8.5-4.3,16-10.8,20.5"/>
							<text>							<textPath  xlink:href="#SVGID_x5F_14_x5F_" startOffset="21.2085%">
<tspan  style="fill:#727276; font-family:'Roboto-Bold'; font-size:7.4329px; letter-spacing:75;">CONFIANZA       </tspan>							</textPath>
</text>
							<defs>
								<filter id="Adobe_OpacityMaskFilter" filterUnits="userSpaceOnUse" x="297.9" y="5.7" width="42.9" height="13.8">
									
										<feColorMatrix  type="matrix" values="-1 0 0 0 1  0 -1 0 0 1  0 0 -1 0 1  0 0 0 1 0" color-interpolation-filters="sRGB" result="source"/>
								</filter>
							</defs>
							<mask maskUnits="userSpaceOnUse" x="297.9" y="5.7" width="42.9" height="13.8" id="SVGID_15_">
								<g class="st5">
									
										<image style="overflow:visible;" width="48" height="19" xlink:href="9B5F2C55.jpg"  transform="matrix(1 0 0 1 295.3577 3.5)">
									</image>
								</g>
							</mask>
							<path style="opacity:0.5;mask:url(#SVGID_15_);fill:#1E1E1E;" d="M302.5,15.4l-0.7,0.7c0.2,0.2,0.4,0.5,0.4,0.7
								s-0.1,0.5-0.3,0.7c-0.2,0.2-0.5,0.3-0.8,0.3c-0.3-0.1-0.6-0.2-0.9-0.5l-0.7-0.8c-0.3-0.3-0.4-0.6-0.5-0.9
								c-0.1-0.3,0-0.6,0.3-0.8c0.2-0.2,0.5-0.4,0.7-0.3s0.5,0.1,0.7,0.4l0.7-0.7l0,0c-0.4-0.4-0.8-0.6-1.3-0.6
								c-0.5,0-1,0.3-1.4,0.7c-0.4,0.4-0.7,0.9-0.6,1.5c0,0.6,0.2,1.1,0.7,1.5l0.7,0.8c0.5,0.5,1,0.7,1.5,0.7s1.1-0.2,1.5-0.6
								c0.4-0.4,0.7-0.9,0.7-1.4C303.2,16.2,303,15.8,302.5,15.4L302.5,15.4z M306.6,11c-0.3-0.5-0.8-0.9-1.4-1s-1.1,0-1.7,0.3
								c-0.6,0.3-0.9,0.8-1,1.4c-0.1,0.6,0,1.1,0.3,1.7l0.5,0.8c0.3,0.5,0.8,0.9,1.4,1c0.6,0.1,1.1,0,1.7-0.3c0.6-0.4,0.9-0.8,1-1.4
								s0-1.1-0.3-1.7L306.6,11z M306,14.2c-0.3,0.2-0.6,0.2-0.9,0.1s-0.6-0.4-0.8-0.7l-0.5-0.8c-0.2-0.3-0.3-0.7-0.3-1
								c0-0.3,0.2-0.6,0.5-0.8c0.3-0.2,0.6-0.2,0.9-0.1s0.6,0.3,0.8,0.7l0.5,0.8c0.2,0.4,0.3,0.7,0.3,1
								C306.4,13.8,306.3,14,306,14.2z M310.5,7.1l1.2,3.4l0,0l-3.2-2.6l-1,0.4l1.8,5l1-0.4l-1.2-3.4l0,0l3.2,2.6l1-0.4l-1.8-5
								L310.5,7.1z M317.3,5.8l-3.4,0.5l0.7,5.2l1-0.1l-0.3-2.2l2-0.3l-0.1-0.8l-2,0.3L315,6.9l2.4-0.3L317.3,5.8z M319.1,11l1.1,0
								l0.1-5.3l-1.1,0L319.1,11z M323.8,6l-2.6,4.9l1.1,0.2l0.5-1.1l1.7,0.3l0.2,1.2l1.1,0.2l-0.9-5.5L323.8,6z M323.2,9.3l0.9-1.7
								l0,0l0.3,1.9L323.2,9.3z M331.5,8.2l-1.3,3.3l0,0l-0.7-4.1l-1-0.4l-1.9,4.9l1,0.4l1.3-3.3l0,0l0.7,4.1l1,0.4l1.9-4.9
								L331.5,8.2z M337.1,12l0.3-0.4l-3-2l-0.4,0.7l2,1.3l-4.1,2l-0.3,0.5l3.1,2l0.4-0.7l-2-1.3L337.1,12z M340.1,13.8l-4.9,2.6
								l0.8,0.8l1-0.6l1.2,1.2l-0.5,1.1l0.8,0.8l2.4-5L340.1,13.8z M338.6,17l-0.9-0.8l1.7-0.9l0,0L338.6,17z"/>
						</g>
						<path id="SVGID_x5F_16_x5F_" class="st17" d="M305.6,56.4c-6.5-4.5-10.8-12-10.8-20.5c0-13.7,11.1-24.9,24.9-24.9
							c13.7,0,24.9,11.1,24.9,24.9c0,8.5-4.3,16-10.8,20.5"/>
						<text>						<textPath  xlink:href="#SVGID_x5F_16_x5F_" startOffset="21.2085%">
<tspan  class="st27" style="font-family:'Roboto-Bold'; font-size:7.4329px; letter-spacing:75;">CONFIANZA       </tspan>						</textPath>
</text>
					</g>
					<linearGradient id="SVGID_17_" gradientUnits="userSpaceOnUse" x1="319.6105" y1="64.4314" x2="319.6105" y2="22.1571">
						<stop  offset="0.2537" style="stop-color:#8E8E8E"/>
						<stop  offset="0.6341" style="stop-color:#FFFFFF"/>
						<stop  offset="0.683" style="stop-color:#FFFFFF"/>
						<stop  offset="1" style="stop-color:#FFFFFF"/>
					</linearGradient>
					<path class="st16" d="M331.5,34.2c-0.1,2.6-0.7,4.5-0.7,4.5c-2,7-9,10.7-11.2,11.7c-2.2-1-9.2-4.8-11.2-11.7
						c0,0-0.5-1.9-0.7-4.5c3.5-1.9,7.6-3,11.9-3C323.9,31.3,327.9,32.3,331.5,34.2z"/>
					<g>
						<polygon class="st21" points="333.4,25.9 318.7,39.2 313.1,37.7 318.9,44.5 						"/>
						<polygon class="st22" points="333.4,23.3 329.8,28.1 318.7,38.3 315,37.4 313.1,35.2 318.7,36.6 						"/>
						<polygon class="st23" points="333.4,20.8 329.8,25.6 318.7,35.8 315,34.8 313.1,32.6 318.7,34.1 						"/>
					</g>
					<g>
						<path id="SVGID_x5F_18_x5F_" class="st17" d="M291.3,44c3.6,12.3,14.9,21.3,28.3,21.3c13.4,0,24.8-9,28.3-21.3"/>
						<text>						<textPath  xlink:href="#SVGID_x5F_18_x5F_" startOffset="1.500000e-03%">
<tspan  style="fill:#0C0C0C; font-family:'Roboto-Bold'; font-size:7.4329px; letter-spacing:75;">ONLINE</tspan>						</textPath>
</text>
						<g>
							
								<image style="overflow:visible;" width="64" height="30" xlink:href="9B5F2C53.png"  transform="matrix(1 0 0 1 287.3577 40.5)">
							</image>
							<path id="SVGID_x5F_19_x5F_" class="st17" d="M291.3,44c3.6,12.3,14.9,21.3,28.3,21.3c13.4,0,24.8-9,28.3-21.3"/>
							<text>							<textPath  xlink:href="#SVGID_x5F_19_x5F_" startOffset="1.500000e-03%">
<tspan  style="fill:#F5F5F6; font-family:'Roboto-Bold'; font-size:7.4329px; letter-spacing:75;">ONLINE</tspan>							</textPath>
</text>
						</g>
						<g>
							<path id="SVGID_x5F_20_x5F_" class="st17" d="M291.3,44c3.6,12.3,14.9,21.3,28.3,21.3c13.4,0,24.8-9,28.3-21.3"/>
							<text>							<textPath  xlink:href="#SVGID_x5F_20_x5F_" startOffset="1.500000e-03%">
<tspan  style="fill:#727276; font-family:'Roboto-Bold'; font-size:7.4329px; letter-spacing:75;">ONLINE</tspan>							</textPath>
</text>
							<defs>
								<filter id="Adobe_OpacityMaskFilter_1_" filterUnits="userSpaceOnUse" x="305.5" y="56.5" width="29" height="8.7">
									
										<feColorMatrix  type="matrix" values="-1 0 0 0 1  0 -1 0 0 1  0 0 -1 0 1  0 0 0 1 0" color-interpolation-filters="sRGB" result="source"/>
								</filter>
							</defs>
							<mask maskUnits="userSpaceOnUse" x="305.5" y="56.5" width="29" height="8.7" id="SVGID_21_">
								<g class="st18">
									
										<image style="overflow:visible;" width="34" height="13" xlink:href="9B5F2C5D.jpg"  transform="matrix(1 0 0 1 303.3577 54.5)">
									</image>
								</g>
							</mask>
							<path style="opacity:0.52;mask:url(#SVGID_21_);fill:#1E1E1E;" d="M309.2,57.5c-0.6-0.3-1.2-0.3-1.7-0.1
								c-0.5,0.2-1,0.6-1.2,1.2l-0.4,0.9c-0.3,0.6-0.3,1.2-0.1,1.7c0.2,0.6,0.6,1,1.2,1.3c0.6,0.3,1.2,0.3,1.7,0.1s1-0.6,1.3-1.2
								l0.4-0.9c0.3-0.6,0.3-1.2,0.1-1.7C310.1,58.2,309.7,57.8,309.2,57.5z M309.2,60l-0.4,0.9c-0.2,0.4-0.4,0.6-0.7,0.8
								c-0.3,0.1-0.6,0.1-0.9,0c-0.3-0.2-0.5-0.4-0.6-0.7c-0.1-0.3,0-0.7,0.2-1.1l0.4-0.9c0.2-0.4,0.4-0.6,0.7-0.8
								c0.3-0.2,0.6-0.1,0.9,0c0.3,0.2,0.5,0.4,0.6,0.7C309.5,59.3,309.4,59.6,309.2,60z M314.3,63L314.3,63l-1.3-4l-1-0.2l-1.2,5.1
								l1,0.2l0.8-3.5l0,0l1.3,4l1,0.2l1.2-5.1l-1-0.2L314.3,63z M318.3,59.9l-1.1,0l-0.2,5.3l3.4,0.1l0-0.8l-2.4-0.1L318.3,59.9z
								 M321.7,59.8l0.6,5.3l1.1-0.1l-0.6-5.3L321.7,59.8z M327.1,58.8l0.9,3.4l0,0l-3-2.9l-1,0.3l1.4,5.1l1-0.3l-0.9-3.4l0,0l3,2.9
								l1-0.3l-1.4-5.1L327.1,58.8z M334.2,60.5l-2.1,1.1l-0.7-1.3l1.7-0.9l-0.4-0.7l-1.7,0.9l-0.6-1.2l2.1-1l-0.4-0.7l-3,1.5
								l2.4,4.7l3-1.5L334.2,60.5z"/>
						</g>
					</g>
					<g>
						
							<image style="overflow:visible;opacity:0.32;" width="82" height="27" xlink:href="9B5F2C5F.png"  transform="matrix(1 0 0 1 281.3577 25.5)">
						</image>
						<g>
							<g>
								<g>
									<path class="st26" d="M292,37.2c-0.3,0-0.5-0.1-0.6-0.2c-0.2-0.2-0.2-0.4-0.2-0.6c0-0.3,0.1-0.5,0.2-0.6
										c0.1-0.2,0.3-0.2,0.6-0.3l0.2,0c0.2,0,0.5,0.1,0.6,0.2c0.2,0.2,0.2,0.4,0.2,0.6c0,0.3-0.1,0.5-0.2,0.6
										c-0.1,0.2-0.4,0.2-0.6,0.3L292,37.2z"/>
									<path class="st26" d="M347.3,35.3c0.3,0,0.5,0.1,0.6,0.2c0.2,0.2,0.2,0.4,0.2,0.6c0,0.3-0.1,0.5-0.2,0.6
										c-0.2,0.2-0.3,0.2-0.6,0.2l-0.2,0c-0.2,0-0.4-0.1-0.6-0.2c-0.1-0.2-0.2-0.4-0.2-0.6c0-0.3,0.1-0.5,0.2-0.6
										c0.2-0.2,0.4-0.2,0.6-0.2L347.3,35.3z"/>
								</g>
								<g>
									<path class="st27" d="M292,37.2c-0.3,0-0.5-0.1-0.6-0.2c-0.2-0.2-0.2-0.4-0.2-0.6c0-0.3,0.1-0.5,0.2-0.6
										c0.1-0.2,0.3-0.2,0.6-0.3l0.2,0c0.2,0,0.5,0.1,0.6,0.2c0.2,0.2,0.2,0.4,0.2,0.6c0,0.3-0.1,0.5-0.2,0.6
										c-0.1,0.2-0.4,0.2-0.6,0.3L292,37.2z"/>
									<path class="st27" d="M347.3,35.3c0.3,0,0.5,0.1,0.6,0.2c0.2,0.2,0.2,0.4,0.2,0.6c0,0.3-0.1,0.5-0.2,0.6
										c-0.2,0.2-0.3,0.2-0.6,0.2l-0.2,0c-0.2,0-0.4-0.1-0.6-0.2c-0.1-0.2-0.2-0.4-0.2-0.6c0-0.3,0.1-0.5,0.2-0.6
										c0.2-0.2,0.4-0.2,0.6-0.2L347.3,35.3z"/>
								</g>
							</g>
						</g>
					</g>
				</g>
			</g>
		</g>
	</g>
	<g id="Fondo">
	</g>
	<g id="Sección_2">
	</g>
	<g id="Sección_1">
	</g>
	<g id="Header_1_">
	</g>
	<g id="Top">
	</g>
</g>
<g id="grilla" class="st68">
	<g class="st69">
		<g>
			<g>
				<rect x="-60.6" y="-3961.2" class="st70" width="69" height="4289.9"/>
			</g>
		</g>
		<g>
			<g>
				<rect x="32.4" y="-3961.2" class="st70" width="69" height="4289.9"/>
			</g>
		</g>
		<g>
			<g>
				<rect x="125.4" y="-3961.2" class="st70" width="69" height="4289.9"/>
			</g>
		</g>
		<g>
			<g>
				<rect x="218.4" y="-3961.2" class="st70" width="69" height="4289.9"/>
			</g>
		</g>
		<g>
			<g>
				<rect x="311.4" y="-3961.2" class="st70" width="69" height="4289.9"/>
			</g>
		</g>
		<g>
			<g>
				<rect x="404.4" y="-3961.2" class="st70" width="69" height="4289.9"/>
			</g>
		</g>
	</g>
</g>
</svg>
